<svg id="edZB2KSlOvj1" xmlns="http://www.w3.org/2000/svg" viewBox="0 0 300 300" shape-rendering="geometricPrecision"
     text-rendering="geometricPrecision">
    <defs>
        <linearGradient id="edZB2KSlOvj2-fill" x1="0.946202" y1="1" x2="0.174077" y2="0" spreadMethod="pad"
                        gradientUnits="objectBoundingBox" gradientTransform="translate(0 0)">
            <stop id="edZB2KSlOvj2-fill-0" offset="25%" stop-color="#472c8a"/>
            <stop id="edZB2KSlOvj2-fill-1" offset="100%" stop-color="#131dac"/>
        </linearGradient>
    </defs>
    <path d="M-103.988209,-0.656077C-105.300364,-80.697475,-83.649821,-104.768424,0,-104.378317s104.644287,19.088303,104.378317,104.378317-16.792033,103.332132-104.378317,104.378317-102.676055-19.74438-103.988209-105.034394Z"
          transform="matrix(1.180665 0 0 1.180665 149.798762 149.982705)" fill="url(#edZB2KSlOvj2-fill)"
          stroke-width="0"/>
    <rect width="90" height="30.033752" rx="5" ry="5" transform="matrix(1.666667 0 0 1 74.999985 70.086068)" fill="#fff"
          stroke-width="0"/>
    <rect width="30" height="30" rx="4" ry="4" transform="matrix(1.282509 0 0 2.666667 91.52473 109.999995)"
          fill="#fdfdfd" stroke-width="0"/>
    <rect width="30" height="30" rx="4" ry="4" transform="matrix(1.668107 0 0 3.514414 150 114.56758)" fill="#fafafa"
          stroke-width="0"/>
</svg>