<svg viewBox="0 0 111.973 121.462" xmlns="http://www.w3.org/2000/svg">
  <path fill="none" pointer-events="none" d="M0 0h111.973v121.462H0z"/>
  <path d="M59.848 97.213v2h3.1v-2.3z" class="st5" fill="#eab892"/>
  <path d="M83.848 54.413h1.5v7.7h-1.5v-7.7z" class="st11" fill="#fff"/>
  <path d="M81.948 53.713h2.2v9.2h-2.2v-9.2z" fill="#333333"/>
  <path class="st5" d="M69.148 54.813s2.1-.9 3-1.5c.9-.6 4.8-1.6 5.8.4l-4 3.2s-8.9 1.9-4.8-2.1z" fill="#eab892"/>
  <path class="st16" d="M82.848 53.413h-5.4s-2.7.4-2.7 2.9v7h8.1v-9.9z" fill="#b23232"/>
  <path class="st6"
        d="M49.548 71.513l2.7.4s5.5 3.3 7.8 4.1c2.3.8 3.7 2.5 3.7 7.8s-.6 14.1-.6 14.1h-1.9c.1.1-5.6-26.5-11.7-26.4z"
        fill="#602a02"/>
  <path d="M6.348 42.613h27.5v31.2h-27.5v-31.2z" class="st31" fill="#dcb17f"/>
  <path d="M6.348 42.613h27.5v9.3h-27.5v-9.3z" class="st4" fill="#f9c8a0"/>
  <path
    d="M6.348 51.913h27.5v1.1h-27.5v-1.1zm17.9-4.6c0 .7-.5 1.2-1.2 1.2h-5.8c-.7 0-1.2-.5-1.2-1.2s.5-1.2 1.2-1.2h5.8c.6 0 1.2.5 1.2 1.2z"
    class="st34" fill="#543b1b"/>
  <path
    d="M22.648 42.613v-.3c0-.9-.7-1.6-1.6-1.6h-2c-.9 0-1.6.7-1.6 1.6v.3h5.2zm-18 32.7c0 .8.7 1.5 1.5 1.5h15.9c.8 0 1.5-.7 1.5-1.5s-.7-1.5-1.5-1.5h-15.9c-.9 0-1.5.7-1.5 1.5z"
    fill="#333333"/>
  <path d="M14.948 89.113c0 1.1-.9 1.9-1.9 1.9-1.1 0-1.9-.9-1.9-1.9v-11.6c0-1.1.9-1.9 1.9-1.9 1.1 0 1.9.9 1.9 1.9v11.6z"
        fill="#333333"/>
  <path class="st16"
        d="M77.848 85.313s-2.5 14.7-13.6 15.2c-11.1.6-21.7-4-19.8-13.3 1.9-9.3-11.8 11.9 3.3 17.7 15.1 5.7 32.9 0 30.1-19.6z"
        fill="#b23232"/>
  <path
    d="M108.448 105.113a13.1 13.1 0 0 1-13.1 13.1 13.1 13.1 0 0 1-13.1-13.1 13.1 13.1 0 0 1 13.1-13.1 13.1 13.1 0 0 1 13.1 13.1z"
    fill="#333333"/>
  <path
    d="M105.648 105.113a10.3 10.3 0 0 1-10.3 10.3 10.3 10.3 0 0 1-10.3-10.3 10.3 10.3 0 0 1 10.3-10.3 10.3 10.3 0 0 1 10.3 10.3z"
    class="st11" fill="#fff"/>
  <path class="st0"
        d="M95.348 94.713h-.3c1.9 1.7 3.9 4 4.6 6.9 1 4.3-1.9 11-7.5 13.2 1 .3 2.1.5 3.2.5 5.7 0 10.3-4.6 10.3-10.3 0-5.6-4.6-10.3-10.3-10.3z"
        fill="#e8e8e8"/>
  <path
    d="M40.348 105.113a13.2 13.2 0 0 1-13.2 13.2 13.2 13.2 0 0 1-13.2-13.2 13.2 13.2 0 0 1 13.2-13.2 13.2 13.2 0 0 1 13.2 13.2z"
    fill="#333333"/>
  <path
    d="M37.448 105.113a10.3 10.3 0 0 1-10.3 10.3 10.3 10.3 0 0 1-10.3-10.3 10.3 10.3 0 0 1 10.3-10.3 10.3 10.3 0 0 1 10.3 10.3z"
    class="st11" fill="#fff"/>
  <path class="st0"
        d="M27.148 94.713h-.3c1.9 1.7 3.9 4 4.6 6.9 1 4.3-1.9 11-7.5 13.2 1 .3 2.1.5 3.2.5 5.7 0 10.3-4.6 10.3-10.3.1-5.6-4.6-10.3-10.3-10.3z"
        fill="#e8e8e8"/>
  <path d="M79.348 58.513a1.7 1.7 0 0 1-1.7 1.7 1.7 1.7 0 0 1-1.7-1.7 1.7 1.7 0 0 1 1.7-1.7 1.7 1.7 0 0 1 1.7 1.7z"
        class="st35" fill="#00232e"/>
  <path class="st15"
        d="M75.948 63.313s6 20.8-2.1 35.3c-8.1 14.5-39.5 2.5-27.1-16.4h-15.8s-5.7 3.5-5.8 4.8c-.1 1.3 15 18 15 18s18.3 10.9 36.6 1c0 0 13-11.2 17.2-22.8 0 0-5.9-14-12.1-21-6-7-5.9 1.1-5.9 1.1z"
        fill="#cc3a3a"/>
  <path d="M59.848 99.213v3.8h8.6s-.1-3.8-5.4-3.8h-3.2z" fill="#333333"/>
  <path d="M59.848 103.013h8.6v.8h-8.6v-.8z" class="st11" fill="#fff"/>
  <path class="st16"
        d="M82.148 99.913s6.1-6.5 8.9-11.9c2.8-5.4 3.8-4.6 6.1-3.6 2.3 1 11.6 10.7 11.1 13.2s-3.9 2-7.3 1.8c-3.4-.2-10.6.9-14.5 6.5-3.9 5.6-5.6 4.6-7.4 3.3-1.8-1.4-2.9-3.5-1.8-4.8 1.1-1.3 4.1-3.7 4.9-4.5z"
        fill="#b23232"/>
  <path d="M95.448 82.713c.3.7 0 1.4-.7 1.7-.7.3-1.4 0-1.7-.7l-3.4-8.1c-.3-.7 0-1.4.7-1.7.7-.3 1.4 0 1.7.7l3.4 8.1z"
        fill="#333333"/>
  <path class="st16" d="M40.248 105.013h-36.3s-1.2-19.6 18.2-20.2c19.3-.7 18.1 20.2 18.1 20.2z" fill="#b23232"/>
  <path class="st11"
        d="M26.848 91.913c0 .5-.4.8-.8.8h-7.3c-.5 0-.8-.4-.8-.8 0-.5.4-.8.8-.8h7.3c.4-.1.8.3.8.8zm0 3.2c0 .5-.4.8-.8.8h-7.3c-.5 0-.8-.4-.8-.8 0-.5.4-.8.8-.8h7.3c.4 0 .8.4.8.8zm0 3.3c0 .5-.4.8-.8.8h-7.3c-.5 0-.8-.4-.8-.8 0-.5.4-.8.8-.8h7.3c.4-.1.8.3.8.8z"
        fill="#fff"/>
  <path d="M57.348 97.913v1.9h3.1v-2.2z" class="st4" fill="#f9c8a0"/>
  <path d="M57.348 99.813v3.8h8.6s-.1-3.8-5.5-3.8h-3.1z" fill="#333333"/>
  <path d="M57.348 103.713h8.6v.8h-8.6v-.8z" class="st11" fill="#fff"/>
  <path class="st0"
        d="M49.548 78.313c0 2.5-2 4.5-4.5 4.5h-23.1c-2.5 0-4.5-2-4.5-4.5s2-4.5 4.5-4.5h23.1c2.5 0 4.5 2 4.5 4.5z"
        fill="#e8e8e8"/>
  <path class="st10" d="M51.048 42.613s4 10 18 12.2v2.3c.1 0-19.6 15.7-18-14.5z" fill="#086b5f"/>
  <path class="st4" d="M42.948 16.813c-1.2 1.8-2 4-2 6.4 0 6.4 5.1 11.5 11.5 11.5s11.5-5.1 11.5-11.5v-6.4h-21z"
        fill="#f9c8a0"/>
  <path d="M64.548 18.813v.6h-18.1v-1.5z" fill="#333333"/>
  <path class="st15"
        d="M64.548 18.813c0-.4.1-.9.1-1.3 0-7.6-6.1-13.7-13.6-13.7s-13.6 6.2-13.6 13.7c0 .4 0 .9.1 1.3h27z"
        fill="#cc3a3a"/>
  <path class="st15" d="M37.448 18.813l1 9.7h6.8s2.1.1 2.1-2.5v-7.2l-1.1-3.2-8.8 3.2z" fill="#cc3a3a"/>
  <path d="M44.548 23.513a1.5 1.5 0 0 1-1.5 1.5 1.5 1.5 0 0 1-1.5-1.5 1.5 1.5 0 0 1 1.5-1.5 1.5 1.5 0 0 1 1.5 1.5z"
        class="st16" fill="#b23232"/>
  <path d="M59.448 22.813a1.7 1.7 0 0 1-1.7 1.7 1.7 1.7 0 0 1-1.7-1.7 1.7 1.7 0 0 1 1.7-1.7 1.7 1.7 0 0 1 1.7 1.7z"
        class="st35" fill="#00232e"/>
  <path d="M58.848 27.413a2.7 1 0 0 1-2.7 1 2.7 1 0 0 1-2.7-1 2.7 1 0 0 1 2.7-1 2.7 1 0 0 1 2.7 1z" class="st5"
        fill="#eab892"/>
  <path class="st15" d="M61.248 30.613c-.9-.3-2.1-.7-2.5-1-.4-.3-.6 1.6.1 3.2.9-.6 1.7-1.4 2.4-2.2z" fill="#cc3a3a"/>
  <path class="st4" d="M52.448 33.713l-2.6 3.9-5.9-3.4s1.7-2 1.7-3.5c.1-1.5 6.8 3 6.8 3z" fill="#f9c8a0"/>
  <path class="st17"
        d="M62.248 83.713c-.2-5.1-1.3-6.4-5.9-8.9-4.6-2.4-5.5-2.7-6-4.6-.4-1.4-11.7 1.3-17.3 2.8l-4.2-1.2s.4 1 1.1 2.4c.2.5.7 1.5 1.7 2.7.7.9 1.5 1.8 2.4 2.3 3.7 2.9 10.4 5.8 22.2 5.3v13.5h5.4c.1 0 .8-9.2.6-14.3z"
        fill="#733500"/>
  <path class="st10" d="M49.548 60.013c-.2-2.4-.2-4.1-.2-4.1s-4.4-5.1-5.4-9.8c0 0 1.9 8.2 5.6 13.9z" fill="#086b5f"/>
  <path class="st4"
        d="M69.148 56.713s2.3-1.7 5.2-1.2c2.9.5 4.6 4 3.2 6.7-1.4 2.7-4.1 1.2-3.4 0 .7-1.2.5-3.6-2-3.3-2.4.3-1.4 3.2-.7 3.6.7.5-1.7 2.4-3.3.8-1.8-1.5-.8-5.7 1-6.6z"
        fill="#f9c8a0"/>
  <path d="M74.748 61.013a2.2 2.2 0 0 1-2.2 2.2 2.2 2.2 0 0 1-2.2-2.2 2.2 2.2 0 0 1 2.2-2.2 2.2 2.2 0 0 1 2.2 2.2z"
        class="st35" fill="#00232e"/>
  <path class="st9"
        d="M43.748 34.013s1.7.1 3.7 1.4c2 1.3 3.4 1.6 3 4.1-.4 2.5 4.5 15.2 18.7 17v8.5s-13.6-1.1-19.7-9.2c0 0 .1 12.1 2.8 16.1 0 0-11.3 8.7-24.1-.7 0 .1-2.6-19 15.6-37.2z"
        fill="#008b7d"/>
  <path class="st35" d="M47.348 18.813s16.3-.3 17.2-1.3c0 0 0-1.1-.1-1.9 0 0 9.4 3 7.6 3.9h-23.5l-1.2-.7z"
        fill="#00232e"/>
</svg>
